<?xml version="1.0" encoding="UTF-8" standalone="no"?>
<!DOCTYPE svg PUBLIC "-//W3C//DTD SVG 1.1//EN" "http://www.w3.org/Graphics/SVG/1.1/DTD/svg11.dtd">
<svg width="100%" height="100%" viewBox="0 0 175 149" version="1.1" xmlns="http://www.w3.org/2000/svg" xmlns:xlink="http://www.w3.org/1999/xlink" xml:space="preserve" xmlns:serif="http://www.serif.com/" style="fill-rule:evenodd;clip-rule:evenodd;stroke-linejoin:round;stroke-miterlimit:2;">
    <path d="M79.529,34.618L102.414,0L126.01,0C139.472,0 150.867,4.472 160.195,13.415C169.522,22.358 174.186,33.56 174.186,47.023L174.186,101.545C174.186,115.008 169.522,126.211 160.195,135.153C150.867,144.096 139.472,148.568 126.01,148.568L79.529,148.568L79.529,144.631C84.273,142.372 88.531,139.055 92.324,134.721C97.464,128.658 100.843,121.737 102.414,113.95L126.01,113.95C134.856,113.95 139.28,109.815 139.28,101.545L139.28,47.023C139.28,38.753 134.856,34.618 126.01,34.618L79.529,34.618Z" style="fill:rgb(140,50,39);fill-rule:nonzero;"/>
    <path d="M103.574,0L79.529,34.618L42.118,34.618C37.31,34.618 34.906,38.368 34.906,45.869C34.906,53.177 37.31,56.831 42.118,56.831L61.745,56.831C74.053,56.831 84.246,61.447 92.324,70.678C99.824,79.525 103.574,90.199 103.574,102.699C103.574,106.631 103.203,110.382 102.462,113.95L102.414,113.95C101.065,120.637 98.382,126.685 94.397,132.099L94.381,132.121L94.169,132.407L93.964,132.678L93.923,132.731L93.748,132.961L93.712,133.007L93.504,133.274L93.471,133.316L93.296,133.537L93.238,133.609L93.061,133.83L93.027,133.872L92.818,134.128L92.763,134.195L92.6,134.392L92.538,134.466L92.324,134.721L92.14,134.93L92.077,135L91.955,135.137L91.879,135.222L91.77,135.343L91.686,135.435L91.584,135.546L91.494,135.644L91.399,135.747L91.302,135.851L91.214,135.945L91.109,136.057L91.031,136.14L90.914,136.262L90.849,136.33L90.719,136.465L90.67,136.515L90.522,136.667L90.497,136.692C87.178,140.073 83.526,142.727 79.529,144.631L79.529,144.68C74.195,147.272 68.267,148.568 61.745,148.568L0,148.568L25.502,113.95L61.745,113.95C66.553,113.95 68.957,110.2 68.957,102.699C68.957,95.199 66.553,91.449 61.745,91.449L42.118,91.449C29.809,91.449 19.616,86.833 11.539,77.602C3.846,68.947 0,58.37 0,45.869C0,33.368 3.942,22.598 11.827,13.559C19.712,4.52 29.809,0 42.118,0L103.574,0Z" style="fill-rule:nonzero;"/>
</svg>
